# xmcd CD database file
#
# Track frame offsets:
#	150
#	14475
#	32775
#	47319
#	69000
#	92885
#	114300
#	131175
#	149550
#	169852
#	191100
#	213560
#	227494
#	248866
#	273150
#	304077
#	326810
#
# Disc length: 4651 seconds
#
# Revision: 4
# Processed by: cddbd v1.5.2PL0 Copyright (c) Steve Scherf et al.
# Submitted via: CDex 1.70beta2
#
DISCID=f4122911
DTITLE=Rasmus Faber - Rasmus Faber presents Platina Jazz ～Anime Standards Vol．3～
DYEAR=2012
DGENRE=Jazz
TTITLE0=The Galaxy Express 銀河鉄道999「劇場版 銀河鉄道999」
TTITLE1=Nausicca Of The Valley Of The Wind 風の谷のナウシカ「風の谷のナウシカ」
TTITLE2=A Town With An Ocean View 海の見える町「魔女の宅急便」
TTITLE3=わが名は小学生「みつどもえ増量中！」
TTITLE4=Pressentiment Triste 悲しい予感「月読 ～MOON PHASE～」
TTITLE5=1／2「るろうに剣心‐明治剣客浪漫譚‐」
TTITLE6=H．T「TRIGUN」
TTITLE7=小さなてのひら「CLANNAD ～AFTER STORY～」
TTITLE8=Platinum プラチナ「カードキャプターさくら」
TTITLE9=Stolen Moments ルパン三世 愛のテーマ「ルパン三世(TV第2シリーズ)」
TTITLE10=輝く夜の静寂には「黒執事II」
TTITLE11=Enchanting Creamy デリケートに好きして「魔法の天使クリィミーマミ」
TTITLE12=天使のゆびきり「彼氏彼女の事情」
TTITLE13=対象a「ひぐらしのなく頃に解」
TTITLE14=God Only Knows「神のみぞ知るセカイ」
TTITLE15=旅の途中「狼と香辛料」
TTITLE16=Gravity「Wolf’s Rain」
EXTD=YEAR: 2012
EXTT0=
EXTT1=
EXTT2=
EXTT3=
EXTT4=
EXTT5=
EXTT6=
EXTT7=
EXTT8=
EXTT9=
EXTT10=
EXTT11=
EXTT12=
EXTT13=
EXTT14=
EXTT15=
EXTT16=
PLAYORDER=
